<?xml version="1.0" encoding="UTF-8" standalone="no"?>
<svg
   viewBox="0 0 24 24"
   width="24px"
   height="24px"
   version="1.1"
   id="svg1"
   sodipodi:docname="tab mirror option 3.5.svg"
   inkscape:version="1.4.3 (0d15f75, 2025-12-25)"
   xmlns:inkscape="http://www.inkscape.org/namespaces/inkscape"
   xmlns:sodipodi="http://sodipodi.sourceforge.net/DTD/sodipodi-0.dtd"
   xmlns="http://www.w3.org/2000/svg"
   xmlns:svg="http://www.w3.org/2000/svg">
  <defs
     id="defs1" />
  <sodipodi:namedview
     id="namedview1"
     pagecolor="#ffffff"
     bordercolor="#000000"
     borderopacity="0.25"
     inkscape:showpageshadow="2"
     inkscape:pageopacity="0.0"
     inkscape:pagecheckerboard="0"
     inkscape:deskcolor="#d1d1d1"
     showgrid="true"
     showguides="false"
     inkscape:zoom="34.666667"
     inkscape:cx="11.192308"
     inkscape:cy="18.403846"
     inkscape:window-width="1419"
     inkscape:window-height="895"
     inkscape:window-x="51"
     inkscape:window-y="33"
     inkscape:window-maximized="0"
     inkscape:current-layer="svg1">
    <inkscape:grid
       id="grid1"
       units="px"
       originx="0"
       originy="0"
       spacingx="1"
       spacingy="1"
       empcolor="#0099e5"
       empopacity="0.30196078"
       color="#0099e5"
       opacity="0.14901961"
       empspacing="5"
       enabled="true"
       visible="true" />
  </sodipodi:namedview>
  <path
     id="path1"
     style="stroke-width:0.918557"
     d="M 2.8007812,1.5 C 1.8159518,1.5 1,2.3491362 1,3.375 V 14.5 c 0,1.025864 1.0151706,2 2,2 h 4 v -2 H 3 v -11 h 4.5 l 2,2 H 17 v 6 h 2 v -6 c 0,-1.0258638 -1.01517,-2 -2,-2 H 10 L 8,1.5 Z M 19,9.5 v 2 h 2 v 9 H 7 v -4 H 5 v 4 c 0,1.025864 1.0151706,2 2,2 h 14 c 0.98483,0 2,-0.974136 2,-2 v -9 c 0,-1.025864 -1.01517,-2 -2,-2 z m -2,1.4 c 0,0 0.802051,1.948584 0,0 z M 7,15.5 v -6 h 4.5 l 2,2 H 17 v -2 h -3 l -2,-2 H 7 C 6.0151706,7.5 5,8.3491362 5,9.375 V 15.5 Z"
     sodipodi:nodetypes="sssscccccccccssccscccccccsssssscccccccccccsscc" />
</svg>
